solid OpenSCAD_Model
  facet normal 0 0 -1
    outer loop
      vertex 13.435 0 0
      vertex 7.42462 7.42462 0
      vertex 14.1421 0.707107 0
    endloop
  endfacet
  facet normal 0 -0 -1
    outer loop
      vertex 7.42462 7.42462 0
      vertex 13.435 0 0
      vertex 6.71751 6.71751 0
    endloop
  endfacet
  facet normal 0 0 -1
    outer loop
      vertex 7.42462 7.42462 0
      vertex 13.435 14.8492 0
      vertex 14.1421 14.1421 0
    endloop
  endfacet
  facet normal 0 0 -1
    outer loop
      vertex 6.71751 8.13173 0
      vertex 7.42462 7.42462 0
      vertex 6.71751 6.71751 0
    endloop
  endfacet
  facet normal 0 0 -1
    outer loop
      vertex 7.42462 7.42462 0
      vertex 6.71751 8.13173 0
      vertex 13.435 14.8492 0
    endloop
  endfacet
  facet normal 0 0 -1
    outer loop
      vertex 6.71751 6.71751 0
      vertex 6.01041 7.42462 0
      vertex 6.71751 8.13173 0
    endloop
  endfacet
  facet normal 0 0 -1
    outer loop
      vertex 0 0 0
      vertex 6.01041 7.42462 0
      vertex 6.71751 6.71751 0
    endloop
  endfacet
  facet normal 0 0 -1
    outer loop
      vertex 6.01041 7.42462 0
      vertex 0 0 0
      vertex -0.707107 0.707107 0
    endloop
  endfacet
  facet normal 0 0 -1
    outer loop
      vertex 6.01041 7.42462 0
      vertex 0 14.8492 0
      vertex 6.71751 8.13173 0
    endloop
  endfacet
  facet normal 0 -0 -1
    outer loop
      vertex 0 14.8492 0
      vertex 6.01041 7.42462 0
      vertex -0.707107 14.1421 0
    endloop
  endfacet
  facet normal -0.707107 -0.707107 0
    outer loop
      vertex 0 0 0
      vertex -0.707107 0.707107 200
      vertex -0.707107 0.707107 0
    endloop
  endfacet
  facet normal -0.707107 -0.707107 0
    outer loop
      vertex -0.707107 0.707107 200
      vertex 0 0 0
      vertex 0 0 200
    endloop
  endfacet
  facet normal 0.707107 0.707107 -0
    outer loop
      vertex 14.1421 14.1421 0
      vertex 13.435 14.8492 200
      vertex 14.1421 14.1421 200
    endloop
  endfacet
  facet normal 0.707107 0.707107 0
    outer loop
      vertex 13.435 14.8492 200
      vertex 14.1421 14.1421 0
      vertex 13.435 14.8492 0
    endloop
  endfacet
  facet normal 0 0 1
    outer loop
      vertex 13.435 14.8492 200
      vertex 7.42462 7.42462 200
      vertex 14.1421 14.1421 200
    endloop
  endfacet
  facet normal 0 -0 1
    outer loop
      vertex 7.42462 7.42462 200
      vertex 13.435 14.8492 200
      vertex 6.71751 8.13173 200
    endloop
  endfacet
  facet normal 0 0 1
    outer loop
      vertex 7.42462 7.42462 200
      vertex 13.435 0 200
      vertex 14.1421 0.707107 200
    endloop
  endfacet
  facet normal 0 0 1
    outer loop
      vertex 6.71751 6.71751 200
      vertex 7.42462 7.42462 200
      vertex 6.71751 8.13173 200
    endloop
  endfacet
  facet normal 0 0 1
    outer loop
      vertex 7.42462 7.42462 200
      vertex 6.71751 6.71751 200
      vertex 13.435 0 200
    endloop
  endfacet
  facet normal 0 0 1
    outer loop
      vertex 6.71751 8.13173 200
      vertex 6.01041 7.42462 200
      vertex 6.71751 6.71751 200
    endloop
  endfacet
  facet normal 0 0 1
    outer loop
      vertex 0 14.8492 200
      vertex 6.01041 7.42462 200
      vertex 6.71751 8.13173 200
    endloop
  endfacet
  facet normal 0 0 1
    outer loop
      vertex 6.01041 7.42462 200
      vertex 0 14.8492 200
      vertex -0.707107 14.1421 200
    endloop
  endfacet
  facet normal 0 0 1
    outer loop
      vertex 6.01041 7.42462 200
      vertex 0 0 200
      vertex 6.71751 6.71751 200
    endloop
  endfacet
  facet normal 0 -0 1
    outer loop
      vertex 0 0 200
      vertex 6.01041 7.42462 200
      vertex -0.707107 0.707107 200
    endloop
  endfacet
  facet normal -0.707106 0.707108 0
    outer loop
      vertex 6.71751 8.13173 0
      vertex 13.435 14.8492 200
      vertex 13.435 14.8492 0
    endloop
  endfacet
  facet normal -0.707106 0.707108 0
    outer loop
      vertex 13.435 14.8492 200
      vertex 6.71751 8.13173 0
      vertex 6.71751 8.13173 200
    endloop
  endfacet
  facet normal -0.707107 0.707107 0
    outer loop
      vertex -0.707107 0.707107 0
      vertex 6.01041 7.42462 200
      vertex 6.01041 7.42462 0
    endloop
  endfacet
  facet normal -0.707107 0.707107 0
    outer loop
      vertex 6.01041 7.42462 200
      vertex -0.707107 0.707107 0
      vertex -0.707107 0.707107 200
    endloop
  endfacet
  facet normal 0.707107 -0.707107 0
    outer loop
      vertex 7.42462 7.42462 200
      vertex 14.1421 14.1421 0
      vertex 14.1421 14.1421 200
    endloop
  endfacet
  facet normal 0.707107 -0.707107 0
    outer loop
      vertex 14.1421 14.1421 0
      vertex 7.42462 7.42462 200
      vertex 7.42462 7.42462 0
    endloop
  endfacet
  facet normal 0.707107 -0.707107 0
    outer loop
      vertex 0 0 200
      vertex 6.71751 6.71751 0
      vertex 6.71751 6.71751 200
    endloop
  endfacet
  facet normal 0.707107 -0.707107 0
    outer loop
      vertex 6.71751 6.71751 0
      vertex 0 0 200
      vertex 0 0 0
    endloop
  endfacet
  facet normal 0.70711 -0.707103 0
    outer loop
      vertex 13.435 0 0
      vertex 14.1421 0.707107 200
      vertex 13.435 0 200
    endloop
  endfacet
  facet normal 0.70711 -0.707103 0
    outer loop
      vertex 14.1421 0.707107 200
      vertex 13.435 0 0
      vertex 14.1421 0.707107 0
    endloop
  endfacet
  facet normal -0.707103 0.70711 0
    outer loop
      vertex -0.707107 14.1421 0
      vertex 0 14.8492 200
      vertex 0 14.8492 0
    endloop
  endfacet
  facet normal -0.707103 0.70711 0
    outer loop
      vertex 0 14.8492 200
      vertex -0.707107 14.1421 0
      vertex -0.707107 14.1421 200
    endloop
  endfacet
  facet normal -0.707105 -0.707109 0
    outer loop
      vertex 6.01041 7.42462 0
      vertex -0.707107 14.1421 200
      vertex -0.707107 14.1421 0
    endloop
  endfacet
  facet normal -0.707105 -0.707109 0
    outer loop
      vertex -0.707107 14.1421 200
      vertex 6.01041 7.42462 0
      vertex 6.01041 7.42462 200
    endloop
  endfacet
  facet normal -0.707108 -0.707106 0
    outer loop
      vertex 13.435 0 0
      vertex 6.71751 6.71751 200
      vertex 6.71751 6.71751 0
    endloop
  endfacet
  facet normal -0.707108 -0.707106 0
    outer loop
      vertex 6.71751 6.71751 200
      vertex 13.435 0 0
      vertex 13.435 0 200
    endloop
  endfacet
  facet normal 0.707105 0.707109 0
    outer loop
      vertex 6.71751 8.13173 200
      vertex 0 14.8492 0
      vertex 0 14.8492 200
    endloop
  endfacet
  facet normal 0.707105 0.707109 0
    outer loop
      vertex 0 14.8492 0
      vertex 6.71751 8.13173 200
      vertex 6.71751 8.13173 0
    endloop
  endfacet
  facet normal 0.707109 0.707105 0
    outer loop
      vertex 14.1421 0.707107 200
      vertex 7.42462 7.42462 0
      vertex 7.42462 7.42462 200
    endloop
  endfacet
  facet normal 0.707109 0.707105 0
    outer loop
      vertex 7.42462 7.42462 0
      vertex 14.1421 0.707107 200
      vertex 14.1421 0.707107 0
    endloop
  endfacet
endsolid OpenSCAD_Model
